# Alias OBJ Model File
# Exported from SketchUp, (c) 2000-2012 Trimble Navigation Limited
# File units = centimeters

mtllib base-room.mtl

g Mesh1 Model

usemtl FrontColor
v 0 0 -100
vt 0 39.3701
vn 0 -1 -0
v 100 0 -100
vt -39.3701 39.3701
v 100 0 -70.0384
vt -39.3701 27.5742
v 185.4 0 -70.0384
vt -72.9921 27.5742
v 185.4 0 -21.5384
vt -72.9921 8.4797
v 100 0 -21.5384
vt -39.3701 8.4797
v 100 0 -0
vt -39.3701 0
v 0 0 -0
vt 0 0
f 1/1/1 2/2/1 3/3/1 4/4/1 5/5/1 6/6/1 7/7/1 8/8/1 

vt -39.3701 21.1796
vn 0 -0.537963 -0.842969
vt 0 21.1796
v 0 70.2 -144.8
vt 0 53.9659
v 100 70.2 -144.8
vt -39.3701 53.9659
f 2/9/2 1/10/2 9/11/2 10/12/2 

vn -1 0 -0
v 0 70.2 35.2
vt 13.8583 27.6378
vt -57.0079 27.6378
f 1/7/3 8/8/3 11/13/3 9/14/3 

vn 0 -0.448232 0.893917
vt 39.3701 0
v 100 70.2 35.2
vt 39.3701 30.9176
vt 0 30.9176
f 8/8/4 7/15/4 12/16/4 11/17/4 

vn 1 0 -0
vt 8.4797 0
v 100 51.8881 -21.5384
vt 8.4797 20.4284
v 100 51.8881 -70.0384
vt 27.5742 20.4284
vt 27.5742 0
vt 57.0079 27.6378
vt -13.8583 27.6378
f 7/8/5 6/18/5 13/19/5 14/20/5 3/21/5 2/15/5 10/22/5 12/23/5 

vt 39.3701 20.4284
vn 0 0 1
vt 72.9921 0
v 185.4 39 -21.5384
vt 72.9921 15.3543
f 13/24/6 6/15/6 5/25/6 15/26/6 

v 185.4 39 -70.0384
vt 27.5742 15.3543
vt 8.4797 15.3543
f 5/18/5 4/21/5 16/27/5 15/28/5 

v 257.8 0 -70.0384
vt -101.496 27.5742
v 257.8 0 -21.5384
vt -101.496 8.4797
f 5/5/1 4/4/1 17/29/1 18/30/1 

vt -72.9921 0
vn 0 0 -1
vt -72.9921 15.3543
v 257.8 39 -70.0384
vt -101.496 15.3543
vt -101.496 0
f 4/31/7 16/32/7 19/33/7 17/34/7 

vt -39.3701 20.4284
f 3/7/7 14/35/7 16/32/7 4/31/7 

vt 27.5742 -35.8808
vn 0.149225 0.988803 -0
vt 8.4797 -35.8808
vt 8.4797 -69.8836
vt 27.5742 -69.8836
f 14/36/8 13/37/8 15/38/8 16/39/8 

vt 72.9921 27.5742
vn 0 1 -0
vt 72.9921 8.4797
v 257.8 39 -21.5384
vt 101.496 8.4797
vt 101.496 27.5742
f 16/40/9 15/41/9 20/42/9 19/43/9 

vt 101.496 0
vt 101.496 15.3543
f 15/26/6 5/25/6 18/44/6 20/45/6 

f 18/18/5 17/21/5 19/27/5 20/28/5 

vn 1 4.67825e-16 1.70994e-16
vt 27.5742 -4.74824e-14
v 257.8 0 -156.338
vt 61.5506 -4.74824e-14
v 257.8 69.5 -156.338
vt 61.5506 27.3622
v 257.8 58.1864 -98.2676
vt 38.688 22.908
f 19/27/10 17/46/10 21/47/10 22/48/10 23/49/10 

v 185.4 0 -156.338
vt -72.9921 61.5506
vt -101.496 61.5506
f 17/29/1 4/4/1 24/50/1 21/51/1 

vt -27.5742 -3.41476e-14
vn -1 -4.67825e-16 -1.70994e-16
vt -27.5742 15.3543
v 185.4 58.1864 -98.2676
vt -38.688 22.908
v 185.4 69.5 -156.338
vt -61.5506 27.3622
vt -61.5506 -3.41476e-14
f 4/52/11 16/53/11 25/54/11 26/55/11 24/56/11 

vt 72.9921 31.4364
vn -1.91435e-18 0.827055 0.562122
vt 101.496 31.4364
vt 101.496 44.8742
vt 72.9921 44.8742
f 16/57/12 19/58/12 23/59/12 25/60/12 

vt 72.9921 42.3547
vn -7.34344e-18 0.981546 0.191229
vt 101.496 42.3547
vt 101.496 65.6471
vt 72.9921 65.6471
f 25/61/13 23/62/13 22/63/13 26/64/13 

vt -72.9921 27.3622
vt -101.496 27.3622
f 24/31/7 26/65/7 22/66/7 21/34/7 

vt 39.3701 57.0079
v 88.0081 70.2 -88.0081
vt 34.6489 34.6489
vt 39.3701 -13.8583
f 10/67/9 27/68/9 12/69/9

v 11.9919 70.2 -88.0081
vt 4.72121 34.6489
f 10/67/9 28/70/9 27/68/9

vt 0 57.0079
f 9/71/9 28/70/9 10/67/9

v 11.9919 70.2 -11.9919
vt 4.72121 4.72121
f 28/70/9 9/71/9 29/72/9

vt 0 -13.8583
f 11/73/9 29/72/9 9/71/9

f 29/72/9 11/73/9 12/69/9

v 88.0081 70.2 -11.9919
vt 34.6489 4.72121
f 29/72/9 12/69/9 30/74/9

f 30/74/9 12/69/9 27/68/9

vt 4.72121 27.6378
vt 34.6489 27.6378
v 88.0081 133 -88.0081
vt 34.6489 52.3622
v 88.0081 133 -11.9919
vt 4.72121 52.3622
f 30/75/5 27/76/5 31/77/5 32/78/5 

vt -34.6489 27.6378
vt -4.72121 27.6378
v 11.9919 133 -88.0081
vt -4.72121 52.3622
vt -34.6489 52.3622
f 27/79/7 28/80/7 33/81/7 31/82/7 

v 11.9919 133 -11.9919
f 28/79/3 29/80/3 34/81/3 33/82/3 

f 29/75/6 30/76/6 32/77/6 34/78/6 

f 34/72/9 32/74/9 31/68/9 33/70/9 

vt -4.72121 4.72121
vt -34.6489 4.72121
v 88.0081 133 68.3081
vt -34.6489 -26.893
v 11.9919 133 68.3081
vt -4.72121 -26.893
f 34/83/1 32/84/1 35/85/1 36/86/1 

v 88.0081 171.4 -11.9919
vt 4.72121 67.4803
v 88.0081 171.4 28.7081
vt -11.3024 67.4803
vt -26.893 52.3622
f 32/78/5 37/87/5 38/88/5 35/89/5 

v 88.0081 171.4 -88.0081
vt 34.6489 67.4803
f 32/78/5 31/77/5 39/90/5 37/87/5 

vt -34.6489 34.6489
v 162.108 133 -88.0081
vt -63.8221 34.6489
v 162.108 133 -11.9919
vt -63.8221 4.72121
f 32/84/1 31/91/1 40/92/1 41/93/1 

vt -34.6489 67.4803
v 122.608 171.4 -88.0081
vt -48.2709 67.4803
vt -63.8221 52.3622
f 31/82/7 39/94/7 42/95/7 40/96/7 

v 11.9919 171.4 -88.0081
vt -4.72121 67.4803
f 31/82/7 33/81/7 43/97/7 39/94/7 

vt 26.893 52.3622
v 11.9919 171.4 28.7081
vt 11.3024 67.4803
f 33/82/3 34/81/3 36/98/3 44/99/3 43/94/3 

vt 4.72121 17.1453
vn 0 0.7179 0.696146
vt 34.6489 17.1453
vt 34.6489 38.8621
vt 4.72121 38.8621
f 36/100/14 35/101/14 38/102/14 44/103/14 

vt 4.72121 -11.3024
vt 34.6489 -11.3024
f 43/70/9 44/104/9 38/105/9 37/74/9 39/68/9 

v 122.608 171.4 -11.9919
vt 48.2709 4.72121
vt 48.2709 34.6489
f 39/68/9 37/74/9 45/106/9 42/107/9 

vt 63.8221 52.3622
vt 48.2709 67.4803
f 37/90/6 32/77/6 41/108/6 45/109/6 

vt 4.72121 -9.26252
vn 0.697052 0.71702 -0
vt 34.6489 -9.26252
vt 34.6489 12.4261
vt 4.72121 12.4261
f 41/110/15 40/111/15 42/112/15 45/113/15 

